<?xml version="1.0" encoding="iso-8859-1"?>
<!-- Generator: Adobe Illustrator 19.0.0, SVG Export Plug-In . SVG Version: 6.00 Build 0)  -->
<svg version="1.1" id="Capa_1" xmlns="http://www.w3.org/2000/svg" xmlns:xlink="http://www.w3.org/1999/xlink" x="0px" y="0px"
	 viewBox="0 0 384.005 384.005" style="enable-background:new 0 0 384.005 384.005;" xml:space="preserve">
<g>
	<g>
		<path d="M373.328,85.339c-5.888,0-10.667,4.779-10.667,10.667v251.584L18.213,3.12c-4.16-4.16-10.923-4.16-15.083,0
			c-4.16,4.16-4.16,10.923,0,15.083l344.448,344.469H95.995c-5.888,0-10.667,4.779-10.667,10.667
			c0,5.888,4.779,10.667,10.667,10.667h277.333c1.387,0,2.773-0.277,4.075-0.811c2.603-1.088,4.693-3.157,5.781-5.781
			c0.533-1.301,0.811-2.688,0.811-4.075V96.005C383.995,90.117,379.216,85.339,373.328,85.339z"/>
	</g>
</g>
<g>
</g>
<g>
</g>
<g>
</g>
<g>
</g>
<g>
</g>
<g>
</g>
<g>
</g>
<g>
</g>
<g>
</g>
<g>
</g>
<g>
</g>
<g>
</g>
<g>
</g>
<g>
</g>
<g>
</g>
</svg>
