<?xml version="1.0" encoding="iso-8859-1"?>
<!-- Generator: Adobe Illustrator 19.0.0, SVG Export Plug-In . SVG Version: 6.00 Build 0)  -->
<svg version="1.1" id="Capa_1" xmlns="http://www.w3.org/2000/svg" xmlns:xlink="http://www.w3.org/1999/xlink" x="0px" y="0px"
	 viewBox="0 0 512 512" style="enable-background:new 0 0 512 512;" xml:space="preserve">
<g>
	<g>
		<g>
			<path d="M503.467,256c-23.553-0.028-42.639-19.114-42.667-42.667c0-4.713-3.821-8.533-8.533-8.533h-35.476l23.089-62.85
				c1.623-4.413-0.632-9.308-5.042-10.942c-22.064-8.186-33.381-32.647-25.338-54.763c0.782-2.124,0.688-4.472-0.261-6.526
				c-0.95-2.055-2.677-3.648-4.801-4.428L228.225,0.525c-4.426-1.625-9.332,0.645-10.958,5.071
				c-3.869,10.62-11.83,19.248-22.104,23.958c-10.264,4.791-22.017,5.277-32.642,1.35c-2.124-0.783-4.473-0.689-6.528,0.262
				s-3.647,2.679-4.426,4.805L89.534,204.8H59.734c-4.713,0-8.533,3.821-8.533,8.533C51.173,236.886,32.086,255.973,8.533,256
				C3.821,256,0,259.821,0,264.534v187.733c0,4.713,3.82,8.533,8.533,8.533c23.553,0.028,42.639,19.114,42.667,42.667
				c0,4.713,3.82,8.533,8.533,8.533h392.533c4.713,0,8.533-3.82,8.533-8.533c0.028-23.553,19.114-42.639,42.667-42.667
				c4.713,0,8.533-3.821,8.533-8.533V264.534C512,259.821,508.18,256,503.467,256z M164.85,49.3
				c12.624,2.706,25.787,1.212,37.483-4.254c11.708-5.376,21.345-14.422,27.45-25.767l161.329,59.296
				c-5.396,25.889,6.802,52.257,30.025,64.908L398.613,204.8h-18.167l18.129-49.267c1.179-3.19,0.35-6.775-2.108-9.125
				c-14.019-13.377-22.443-31.573-23.575-50.917c-0.201-3.387-2.39-6.333-5.575-7.504L241.792,41.909
				c-3.179-1.159-6.743-0.336-9.092,2.1c-13.411,13.974-31.603,22.37-50.938,23.508c-3.389,0.2-6.336,2.392-7.504,5.579
				L125.887,204.8h-18.174L164.85,49.3z M360.292,185.401l8.02,2.945l-6.053,16.455H144.065l31.984-87.075l8.021,2.946
				c2.864,1.062,6.077,0.512,8.424-1.442c2.348-1.954,3.471-5.014,2.947-8.023s-2.618-5.508-5.488-6.552l-8.021-2.946l6.488-17.663
				c19.634-2.345,38.026-10.835,52.546-24.258l115.396,42.362c2.341,19.65,10.858,38.05,24.325,52.55l-6.485,17.631l-8.027-2.948
				c-4.423-1.625-9.326,0.644-10.95,5.067C353.6,178.874,355.869,183.776,360.292,185.401z M494.934,444.342
				c-26.193,3.826-46.765,24.398-50.592,50.592H67.658c-3.826-26.193-24.398-46.765-50.592-50.592V272.459
				c26.193-3.826,46.765-24.399,50.592-50.592h300.531l0.023,0.004l0.027-0.004h36.304l0.023,0.004l0.027-0.004h39.748
				c3.826,26.193,24.398,46.765,50.591,50.592V444.342z"/>
			<path d="M433.075,244.042c-1.361-3.103-4.428-5.108-7.817-5.108H86.742c-3.388,0.001-6.456,2.005-7.817,5.108
				c-7.758,17.753-21.93,31.925-39.683,39.683c-3.103,1.361-5.108,4.428-5.108,7.817v133.717c0.001,3.388,2.005,6.456,5.108,7.817
				c17.754,7.758,31.925,21.93,39.683,39.683c1.361,3.103,4.428,5.108,7.817,5.108h338.517c3.388-0.001,6.456-2.005,7.817-5.108
				c7.758-17.753,21.93-31.925,39.683-39.683c3.103-1.361,5.108-4.428,5.108-7.817V291.542c-0.001-3.388-2.005-6.456-5.108-7.817
				C455.005,275.967,440.833,261.796,433.075,244.042z M460.8,419.863c-17.618,8.993-31.945,23.32-40.938,40.938h-18.796v-8.533
				c0-4.713-3.821-8.533-8.533-8.533c-4.713,0-8.533,3.821-8.533,8.533v8.533H128v-8.533c0-4.713-3.82-8.533-8.533-8.533
				s-8.533,3.821-8.533,8.533v8.533H92.138c-8.993-17.618-23.32-31.945-40.937-40.938V296.938
				c17.618-8.993,31.945-23.32,40.937-40.938h18.796v8.533c0,4.713,3.82,8.533,8.533,8.533s8.533-3.82,8.533-8.533V256h256v8.533
				c0,4.713,3.821,8.533,8.533,8.533c4.713,0,8.533-3.82,8.533-8.533V256h18.796c8.993,17.618,23.32,31.945,40.938,40.938V419.863z"
				/>
			<path d="M392.533,290.134c-4.713,0-8.533,3.82-8.533,8.533v17.067c0,4.713,3.821,8.533,8.533,8.533
				c4.713,0,8.533-3.82,8.533-8.533v-17.067C401.067,293.954,397.246,290.134,392.533,290.134z"/>
			<path d="M392.533,341.334c-4.713,0-8.533,3.82-8.533,8.533v17.067c0,4.713,3.821,8.533,8.533,8.533
				c4.713,0,8.533-3.82,8.533-8.533v-17.067C401.067,345.154,397.246,341.334,392.533,341.334z"/>
			<path d="M392.533,392.534c-4.713,0-8.533,3.821-8.533,8.533v17.067c0,4.713,3.821,8.533,8.533,8.533
				c4.713,0,8.533-3.82,8.533-8.533v-17.067C401.067,396.354,397.246,392.534,392.533,392.534z"/>
			<path d="M119.467,290.134c-4.713,0-8.533,3.82-8.533,8.533v17.067c0,4.713,3.82,8.533,8.533,8.533s8.533-3.82,8.533-8.533
				v-17.067C128,293.954,124.18,290.134,119.467,290.134z"/>
			<path d="M119.467,341.334c-4.713,0-8.533,3.82-8.533,8.533v17.067c0,4.713,3.82,8.533,8.533,8.533s8.533-3.82,8.533-8.533
				v-17.067C128,345.154,124.18,341.334,119.467,341.334z"/>
			<path d="M119.467,392.534c-4.713,0-8.533,3.821-8.533,8.533v17.067c0,4.713,3.82,8.533,8.533,8.533s8.533-3.82,8.533-8.533
				v-17.067C128,396.354,124.18,392.534,119.467,392.534z"/>
			<path d="M238.017,122.309L238.017,122.309l-16.021-5.884c-2.861-1.051-6.066-0.496-8.406,1.457
				c-2.341,1.952-3.462,5.005-2.942,8.008c0.52,3.003,2.604,5.501,5.465,6.552l16.021,5.883c2.864,1.062,6.077,0.512,8.424-1.442
				c2.347-1.954,3.471-5.014,2.947-8.023C242.98,125.852,240.887,123.353,238.017,122.309z"/>
			<path d="M286.075,139.963L286.075,139.963l-16.021-5.883c-4.423-1.625-9.326,0.644-10.95,5.067
				c-1.625,4.423,0.644,9.326,5.067,10.95l16.021,5.883c4.423,1.625,9.326-0.644,10.95-5.067
				C292.767,146.49,290.498,141.587,286.075,139.963z"/>
			<path d="M334.138,157.617L334.138,157.617l-16.021-5.888c-4.423-1.625-9.326,0.644-10.95,5.067
				c-1.625,4.423,0.644,9.326,5.067,10.95l16.021,5.888c4.423,1.625,9.326-0.644,10.95-5.067
				C340.829,164.144,338.561,159.242,334.138,157.617z"/>
		</g>
	</g>
</g>
<g>
</g>
<g>
</g>
<g>
</g>
<g>
</g>
<g>
</g>
<g>
</g>
<g>
</g>
<g>
</g>
<g>
</g>
<g>
</g>
<g>
</g>
<g>
</g>
<g>
</g>
<g>
</g>
<g>
</g>
</svg>
