<?xml version="1.0" standalone="no"?>
<!DOCTYPE svg PUBLIC "-//W3C//DTD SVG 20010904//EN"
 "http://www.w3.org/TR/2001/REC-SVG-20010904/DTD/svg10.dtd">
<svg version="1.0" xmlns="http://www.w3.org/2000/svg"
 width="335.000000pt" height="335.000000pt" viewBox="0 0 335.000000 335.000000"
 preserveAspectRatio="xMidYMid meet">
<metadata>
Created by potrace 1.11, written by Peter Selinger 2001-2013
</metadata>
<g transform="translate(0.000000,335.000000) scale(0.100000,-0.100000)"
fill="#000000" stroke="none">
<path d="M1787 2834 c-1 -1 -32 -4 -69 -8 -205 -18 -409 -93 -561 -204 -129
-94 -267 -246 -345 -379 -44 -74 -98 -216 -118 -308 -20 -94 -26 -291 -13
-390 21 -156 82 -313 178 -458 116 -176 299 -340 475 -426 176 -86 299 -111
531 -107 147 3 183 7 270 30 181 49 340 139 485 274 l71 67 -3 124 -3 125 -43
-57 c-273 -362 -742 -517 -1128 -372 -91 34 -225 113 -323 191 -2 2 48 54 112
116 184 180 1317 1299 1359 1342 21 22 38 43 38 47 0 12 -155 149 -222 196
-180 127 -383 191 -625 197 -35 1 -65 1 -66 0z m217 -159 c92 -19 150 -37 226
-73 72 -33 200 -115 229 -146 l23 -24 -253 -252 c-140 -138 -453 -449 -695
-691 -284 -282 -446 -437 -455 -434 -42 17 -155 210 -198 339 -40 120 -46 171
-45 341 1 120 5 153 28 228 50 167 126 293 258 428 246 251 554 350 882 284z"/>
</g>
</svg>
