<?xml version="1.0" encoding="iso-8859-1"?>
<!-- Generator: Adobe Illustrator 19.0.0, SVG Export Plug-In . SVG Version: 6.00 Build 0)  -->
<svg version="1.1" id="Capa_1" xmlns="http://www.w3.org/2000/svg" xmlns:xlink="http://www.w3.org/1999/xlink" x="0px" y="0px"
	 viewBox="0 0 480 480" style="enable-background:new 0 0 480 480;" xml:space="preserve">
<g>
	<g>
		<path d="M424,72h-64V32c0-4.418-3.582-8-8-8s-8,3.582-8,8v40H136V32c0-4.418-3.582-8-8-8s-8,3.582-8,8v40H56
			C25.089,72.04,0.04,97.089,0,128v272c0.04,30.911,25.089,55.96,56,56h368c30.911-0.04,55.96-25.089,56-56V128
			C479.96,97.089,454.911,72.04,424,72z M464,400c-0.026,22.08-17.92,39.974-40,40H56c-22.08-0.026-39.974-17.92-40-40V200h448V400z
			 M464,184H16v-56c0.026-22.08,17.92-39.974,40-40h64v40c0,4.418,3.582,8,8,8s8-3.582,8-8V88h208v40c0,4.418,3.582,8,8,8
			s8-3.582,8-8V88h64c22.08,0.026,39.974,17.92,40,40V184z"/>
	</g>
</g>
<g>
</g>
<g>
</g>
<g>
</g>
<g>
</g>
<g>
</g>
<g>
</g>
<g>
</g>
<g>
</g>
<g>
</g>
<g>
</g>
<g>
</g>
<g>
</g>
<g>
</g>
<g>
</g>
<g>
</g>
</svg>
