<?xml version="1.0" encoding="iso-8859-1"?>
<!-- Generator: Adobe Illustrator 19.0.0, SVG Export Plug-In . SVG Version: 6.00 Build 0)  -->
<svg version="1.1" id="Layer_1" xmlns="http://www.w3.org/2000/svg" xmlns:xlink="http://www.w3.org/1999/xlink" x="0px" y="0px"
	 viewBox="0 0 512 512" style="enable-background:new 0 0 512 512;" xml:space="preserve">
<g transform="translate(1 1)">
	<g>
		<g>
			<path d="M502.467,161.133c-23.893,0-42.667-18.773-42.667-42.667c0-5.12-3.413-8.533-8.533-8.533H58.733
				c-5.12,0-8.533,3.413-8.533,8.533c0,23.893-18.773,42.667-42.667,42.667c-5.12,0-8.533,3.413-8.533,8.533v170.667
				c0,5.12,3.413,8.533,8.533,8.533c23.893,0,42.667,18.773,42.667,42.667c0,5.12,3.413,8.533,8.533,8.533h392.533
				c5.12,0,8.533-3.413,8.533-8.533c0-23.893,18.773-42.667,42.667-42.667c5.12,0,8.533-3.413,8.533-8.533V169.667
				C511,164.547,507.587,161.133,502.467,161.133z M493.08,332.653c-25.6,3.413-46.933,23.893-50.347,50.347H66.413
				C63,356.547,42.52,336.067,16.067,331.8V177.347C42.52,173.933,63,153.453,66.413,127h376.32
				c3.413,25.6,23.893,46.933,50.347,50.347V332.653z"/>
			<path d="M400.067,220.867h-179.2c-5.12,0-8.533,3.413-8.533,8.533c0,5.12,3.413,8.533,8.533,8.533h179.2
				c5.12,0,8.533-3.413,8.533-8.533C408.6,224.28,405.187,220.867,400.067,220.867z"/>
			<path d="M118.467,237.933h51.2c5.12,0,8.533-3.413,8.533-8.533c0-5.12-3.413-8.533-8.533-8.533h-51.2
				c-5.12,0-8.533,3.413-8.533,8.533C109.933,234.52,113.347,237.933,118.467,237.933z"/>
			<path d="M263.533,272.067H118.467c-5.12,0-8.533,3.413-8.533,8.533s3.413,8.533,8.533,8.533h145.067
				c5.12,0,8.533-3.413,8.533-8.533S268.653,272.067,263.533,272.067z"/>
			<path d="M400.067,272.067h-85.333c-5.12,0-8.533,3.413-8.533,8.533s3.413,8.533,8.533,8.533h85.333
				c5.12,0,8.533-3.413,8.533-8.533S405.187,272.067,400.067,272.067z"/>
			<path d="M451.267,195.267c-14.507,0-25.6-11.093-25.6-25.6c0-5.12-3.413-8.533-8.533-8.533H92.867
				c-5.12,0-8.533,3.413-8.533,8.533c0,14.507-11.093,25.6-25.6,25.6c-5.12,0-8.533,3.413-8.533,8.533v102.4
				c0,5.12,3.413,8.533,8.533,8.533c14.507,0,25.6,11.093,25.6,25.6c0,5.12,3.413,8.533,8.533,8.533h324.267
				c5.12,0,8.533-3.413,8.533-8.533c0-14.507,11.093-25.6,25.6-25.6c5.12,0,8.533-3.413,8.533-8.533V203.8
				C459.8,198.68,456.387,195.267,451.267,195.267z M442.733,298.52c-17.067,3.413-29.867,16.213-33.28,33.28H100.547
				c-3.413-17.067-16.213-29.867-33.28-33.28v-87.04c17.067-3.413,29.867-16.213,33.28-33.28h308.907
				c3.413,17.067,16.213,29.867,33.28,33.28V298.52z"/>
		</g>
	</g>
</g>
<g>
</g>
<g>
</g>
<g>
</g>
<g>
</g>
<g>
</g>
<g>
</g>
<g>
</g>
<g>
</g>
<g>
</g>
<g>
</g>
<g>
</g>
<g>
</g>
<g>
</g>
<g>
</g>
<g>
</g>
</svg>
