<svg height="512pt" viewBox="0 0 512.00013 512" width="512pt" xmlns="http://www.w3.org/2000/svg"><path d="m461.082031 50.835938c-67.78125-67.78125-178.070312-67.78125-245.851562 0-32.835938 32.835937-50.917969 76.488281-50.917969 122.925781 0 41.398437 14.382812 80.578125 40.769531 111.859375l-200.6875 200.53125c-5.855469 5.855468-5.859375 15.347656-.007812 21.207031 2.929687 2.933594 6.769531 4.394531 10.609375 4.394531 3.835937 0 7.671875-1.460937 10.601562-4.386718l200.695313-200.539063c32.21875 27.121094 72.035156 40.695313 111.863281 40.695313 44.515625 0 89.035156-16.945313 122.925781-50.835938 32.835938-32.835938 50.917969-76.492188 50.917969-122.925781 0-46.4375-18.082031-90.089844-50.917969-122.925781zm-21.207031 224.644531c-56.089844 56.082031-147.347656 56.085937-203.4375 0-27.167969-27.171875-42.132812-63.296875-42.132812-101.71875 0-38.425781 14.964843-74.546875 42.132812-101.71875 28.046875-28.042969 64.882812-42.066407 101.71875-42.066407s73.671875 14.023438 101.71875 42.066407c27.167969 27.171875 42.132812 63.292969 42.132812 101.71875 0 38.421875-14.964843 74.546875-42.132812 101.71875zm0 0"/><path d="m424.570312 87.347656c-23.082031-23.078125-53.773437-35.792968-86.414062-35.792968s-63.332031 12.710937-86.414062 35.792968c-47.648438 47.648438-47.648438 125.175782 0 172.824219 23.824218 23.824219 55.121093 35.738281 86.414062 35.738281s62.589844-11.914062 86.414062-35.738281c47.644532-47.648437 47.644532-125.175781 0-172.824219zm-21.210937 151.617188c-17.414063 17.417968-40.570313 27.007812-65.203125 27.007812s-47.789062-9.589844-65.203125-27.007812c-35.953125-35.953125-35.953125-94.453125 0-130.40625 17.414063-17.417969 40.570313-27.007813 65.203125-27.007813s47.789062 9.589844 65.203125 27.007813c35.953125 35.953125 35.953125 94.453125 0 130.40625zm0 0"/></svg>